<svg xmlns="http://www.w3.org/2000/svg" version="1.1" xmlns:xlink="http://www.w3.org/1999/xlink" xmlns:svgjs="http://svgjs.dev/svgjs" width="1440" height="560" preserveAspectRatio="none" viewBox="0 0 1440 560"><g mask="url(&quot;#SvgjsMask1007&quot;)" fill="none"><rect width="1440" height="560" x="0" y="0" fill="rgba(2, 121, 251, 1)"></rect><path d="M0 59.23C17.12 22.67 27.55 16.07 65.53 0C97.55 -13.55 102.76 0 140 0C210 0 210 0 280 0C350 0 350 0 420 0C490 0 490 0 560 0C610.28 0 634.52 -28.99 660.56 0C697.4 41.01 669.12 71.59 685.76 140C688.84 152.65 687.91 158.82 700 162.11C765.03 179.82 775.07 189.58 840 182C869.78 178.52 864.7 161 889.41 140C934.7 101.5 933.53 63 980 63C1030.16 63 1029.3 105.17 1082.67 140C1099.3 150.85 1102.38 154.36 1120 154.36C1130.38 154.36 1136.82 151.1 1138.67 140C1149.69 73.92 1112.33 38.57 1145.75 0C1172.99 -31.43 1202.88 0 1260 0C1330 0 1330 0 1400 0C1470 0 1499.24 -29.24 1540 0C1569.24 20.98 1565.86 68.6 1540 100.43C1508.99 138.6 1426.25 123.44 1426.25 140C1426.25 156.04 1511.29 130.29 1540 165.63C1568.16 200.29 1540 222.81 1540 280C1540 350 1540 350 1540 420C1540 483.72 1562.62 547.44 1540 547.44C1510.85 547.44 1487.03 484.63 1436.46 420C1417.03 395.17 1419.95 368.53 1400 368.53C1377.75 368.53 1373.74 392.38 1352.05 420C1303.74 481.51 1309.75 487.75 1260 546.79C1250.76 557.75 1248.3 558.66 1234.07 560C1178.3 565.26 1177.03 560 1120 560C1076 560 1038.48 585.92 1032 560C1020.98 515.92 1100.23 464.8 1085 420C1074.23 388.34 1032.35 407.08 980 407.08C941.67 407.08 909.25 393.58 903.64 420C893 470.04 965.86 519.6 947.5 560C934.04 589.6 893.75 560 840 560C770 560 770 560 700 560C630 560 630 560 560 560C490 560 490 560 420 560C381.25 560 363.28 584.24 342.5 560C303.28 514.24 325.67 487.66 300 420C294.42 405.3 289.07 395.29 280 395.29C271.83 395.29 275.64 409.99 265.52 420C205.64 479.22 200.38 474.8 140 533.75C128.68 544.8 136.57 557.29 122.13 560C66.57 570.42 28.45 592.61 0 560C-32.61 522.61 0 490 0 420C0 352.26 -5.14 348.79 0 284.52C0.46 278.79 11.2 283.05 11.2 280C11.2 276.41 0.55 278.09 0 271.25C-5.05 208.09 0 205.63 0 140C0 99.62 -15.65 92.67 0 59.23" stroke="rgba(44, 81, 120, 1)" stroke-width="2"></path><path d="M280 126.67C273.91 129.5 276.16 133.27 276.16 140C276.16 148.69 271.87 155.85 280 157.5C343.79 170.44 355.68 176.11 420 169.17C436.79 167.36 442.22 156.43 442.22 140C442.22 108.51 445.9 75.46 420 73.33C364.79 68.79 345.83 96.16 280 126.67" stroke="rgba(44, 81, 120, 1)" stroke-width="2"></path><path d="M840 46.67C823.4 46.67 807.69 14.87 807.69 0C807.69 -8.46 823.85 0 840 0C857.5 0 875 -8.75 875 0C875 14.58 857.06 46.67 840 46.67" stroke="rgba(44, 81, 120, 1)" stroke-width="2"></path><path d="M0 126.54C65.34 61.2 79.2 -3.59 140 0C193.31 3.14 228.22 70.43 228.22 140C228.22 207.51 193.88 269 140 274.17C79.77 279.94 62.39 221.68 0 161.88C-7.61 154.59 0 150.94 0 140C0 133.27 -4.66 131.2 0 126.54" stroke="rgba(44, 81, 120, 1)" stroke-width="2"></path><path d="M497.78 140C510.69 76.22 449.99 42.77 469 0C481.1 -27.23 514.5 0 560 0C585.63 0 602.4 -18.68 611.27 0C635.62 51.32 603.86 75.31 626.44 140C648.22 202.41 647.57 222.42 700 254.21C754.35 287.17 779.15 291.85 840 269.5C919.15 240.42 902.55 170.79 980 151.35C1042.55 135.65 1054.5 202.66 1120 199.23C1163 196.98 1183.51 180.73 1197 140C1216.5 81.12 1165.35 45.84 1185.98 0C1196.85 -24.16 1222.99 0 1260 0C1330 0 1330 0 1400 0C1470 0 1480.37 -10.37 1540 0C1550.37 1.8 1549.48 18.13 1540 24.35C1479.48 64.07 1467.2 53.57 1400 91.88C1365.77 111.39 1337.14 112.26 1337.14 140C1337.14 174.82 1357.89 201.45 1400 217C1459.32 238.91 1492.21 193.42 1540 214.93C1562.21 224.92 1540 247.47 1540 280C1540 350 1540 350 1540 420C1540 461.28 1554.66 502.56 1540 502.56C1521.12 502.56 1504.94 462.43 1472.92 420C1434.94 369.68 1439.9 317.06 1400 317.06C1355.5 317.06 1349.75 366.63 1304.11 420C1279.75 448.48 1285.53 480.75 1260 480.75C1228.48 480.75 1226.61 448.27 1190 420C1156.61 394.22 1159.29 385.14 1120 372.65C1054.29 351.76 1047.83 371.25 980 353.23C907.83 334.05 889.84 280.36 840 298.26C796.89 313.74 794.1 361.39 794.1 420C794.1 459.1 816.37 457.28 840 493.68C861.82 527.28 885 538.76 885 560C885 571.92 862.5 560 840 560C770 560 770 560 700 560C630 560 630 560 560 560C490 560 490 560 420 560C412.5 560 405 565.96 405 560C405 533.65 405.05 524.18 420 495.38C441.38 454.18 477.65 454.6 477.65 420C477.65 392.41 446.01 398.28 420 371C379.27 328.28 344.17 317.57 344.17 280C344.17 253.11 389.45 269.93 420 242.08C466.25 199.93 486.19 197.26 497.78 140" stroke="rgba(44, 81, 120, 1)" stroke-width="2"></path><path d="M0 340.97C45.16 325.92 85.41 343.54 140 373.33C157.83 383.06 144.83 397.59 144.83 420C144.83 423.11 141.86 421.7 140 424.38C93.27 491.7 101.9 507.45 47.66 560C31.9 575.26 6.05 577.78 0 560C-17.78 507.78 0 490 0 420C0 380.49 -24.84 349.25 0 340.97" stroke="rgba(44, 81, 120, 1)" stroke-width="2"></path><path d="M68.29 140C68.29 108.42 108.66 76.09 140 76.09C164.65 76.09 180.27 108.24 180.27 140C180.27 170.82 164.49 201.25 140 201.25C108.5 201.25 68.29 171 68.29 140" stroke="rgba(44, 81, 120, 1)" stroke-width="2"></path><path d="M553.33 140C557.45 70.15 553.25 68.29 556.5 0C556.58 -1.71 558.25 0 560 0C560.99 0 561.92 -0.97 561.97 0C565.48 69.03 564.11 70.02 567.12 140C570.13 210.02 577.08 212.22 574 280C573.52 290.45 567.73 296.47 560 296.47C550.73 296.47 540.52 292.17 540 280C537.18 213.94 549.2 210.15 553.33 140" stroke="rgba(44, 81, 120, 1)" stroke-width="2"></path><path d="M1255.33 140C1239.95 70.23 1224.32 56.62 1226.21 0C1226.66 -13.38 1243.11 0 1260 0C1330 0 1330 0 1400 0C1435 0 1470 -8.72 1470 0C1470 9.87 1432.6 14.85 1400 37.19C1330.45 84.85 1330.18 86.52 1265.71 140C1260.18 144.59 1262.63 153.33 1260 153.33C1257.44 153.33 1256.85 146.89 1255.33 140" stroke="rgba(44, 81, 120, 1)" stroke-width="2"></path><path d="M939.35 280C939.35 265.55 955.19 250.88 980 245.95C1045.51 232.93 1052.69 233.28 1120 244.1C1158.59 250.3 1191.79 261.03 1191.79 280C1191.79 299.57 1159.05 317.61 1120 321.18C1053.15 327.3 1048.54 315 980 299.38C958.22 294.41 939.35 292.27 939.35 280" stroke="rgba(44, 81, 120, 1)" stroke-width="2"></path><path d="M1465.33 280C1470.57 253.36 1509.06 264.23 1540 264.23C1546.39 264.23 1540 272.12 1540 280C1540 350 1540 350 1540 420C1540 438.85 1546.69 457.69 1540 457.69C1531.38 457.69 1518.66 442.09 1509.38 420C1481.33 353.24 1455.26 331.24 1465.33 280" stroke="rgba(44, 81, 120, 1)" stroke-width="2"></path><path d="M0 397.42C13.9 397.42 41.18 402.79 41.18 420C41.18 450.92 10.99 493.68 0 493.68C-9.6 493.68 0 456.84 0 420C0 408.71 -6.69 397.42 0 397.42" stroke="rgba(44, 81, 120, 1)" stroke-width="2"></path><path d="M627.74 420C655.62 380.74 669.24 354.12 700 354.12C723.73 354.12 722.3 385.29 736.72 420C765.08 488.23 797.2 515.61 785.56 560C778.84 585.61 742.78 560 700 560C630 560 630 560 560 560C556.5 560 553 561.68 553 560C553 557.31 557.36 556.19 560 551.25C594.73 486.19 585.62 479.3 627.74 420" stroke="rgba(44, 81, 120, 1)" stroke-width="2"></path></g><defs><mask id="SvgjsMask1007"><rect width="1440" height="560" fill="#ffffff"></rect></mask></defs></svg>