<svg xmlns="http://www.w3.org/2000/svg" version="1.1" xmlns:xlink="http://www.w3.org/1999/xlink" xmlns:svgjs="http://svgjs.dev/svgjs" width="1440" height="560" preserveAspectRatio="none" viewBox="0 0 1440 560"><g mask="url(&quot;#SvgjsMask1594&quot;)" fill="none"><rect width="1440" height="560" x="0" y="0" fill="rgba(79, 144, 212, 1)"></rect><path d="M430.7 -54.59L495.66 -17.09L495.66 57.91L430.7 95.41L365.75 57.91L365.75 -17.09zM625.56 57.91L690.52 95.41L690.52 170.41L625.56 207.91L560.61 170.41L560.61 95.41zM560.61 170.41L625.56 207.91L625.56 282.91L560.61 320.41L495.66 282.91L495.66 207.91zM560.61 395.41L625.56 432.91L625.56 507.91L560.61 545.41L495.66 507.91L495.66 432.91zM625.56 507.91L690.52 545.41L690.52 620.41L625.56 657.91L560.61 620.41L560.61 545.41zM690.52 -54.59L755.47 -17.09L755.47 57.91L690.52 95.41L625.56 57.91L625.56 -17.09zM885.38 282.91L950.33 320.41L950.33 395.41L885.38 432.91L820.42 395.41L820.42 320.41zM1275.1 507.91L1340.05 545.41L1340.05 620.41L1275.1 657.91L1210.15 620.41L1210.15 545.41z" stroke="rgba(0, 0, 0, 0.76)" stroke-width="2"></path><path d="M423.2 -54.59 a7.5 7.5 0 1 0 15 0 a7.5 7.5 0 1 0 -15 0zM488.16 -17.09 a7.5 7.5 0 1 0 15 0 a7.5 7.5 0 1 0 -15 0zM488.16 57.91 a7.5 7.5 0 1 0 15 0 a7.5 7.5 0 1 0 -15 0zM423.2 95.41 a7.5 7.5 0 1 0 15 0 a7.5 7.5 0 1 0 -15 0zM358.25 57.91 a7.5 7.5 0 1 0 15 0 a7.5 7.5 0 1 0 -15 0zM358.25 -17.09 a7.5 7.5 0 1 0 15 0 a7.5 7.5 0 1 0 -15 0zM618.06 57.91 a7.5 7.5 0 1 0 15 0 a7.5 7.5 0 1 0 -15 0zM683.02 95.41 a7.5 7.5 0 1 0 15 0 a7.5 7.5 0 1 0 -15 0zM683.02 170.41 a7.5 7.5 0 1 0 15 0 a7.5 7.5 0 1 0 -15 0zM618.06 207.91 a7.5 7.5 0 1 0 15 0 a7.5 7.5 0 1 0 -15 0zM553.11 170.41 a7.5 7.5 0 1 0 15 0 a7.5 7.5 0 1 0 -15 0zM553.11 95.41 a7.5 7.5 0 1 0 15 0 a7.5 7.5 0 1 0 -15 0zM618.06 282.91 a7.5 7.5 0 1 0 15 0 a7.5 7.5 0 1 0 -15 0zM553.11 320.41 a7.5 7.5 0 1 0 15 0 a7.5 7.5 0 1 0 -15 0zM488.16 282.91 a7.5 7.5 0 1 0 15 0 a7.5 7.5 0 1 0 -15 0zM488.16 207.91 a7.5 7.5 0 1 0 15 0 a7.5 7.5 0 1 0 -15 0zM553.11 395.41 a7.5 7.5 0 1 0 15 0 a7.5 7.5 0 1 0 -15 0zM618.06 432.91 a7.5 7.5 0 1 0 15 0 a7.5 7.5 0 1 0 -15 0zM618.06 507.91 a7.5 7.5 0 1 0 15 0 a7.5 7.5 0 1 0 -15 0zM553.11 545.41 a7.5 7.5 0 1 0 15 0 a7.5 7.5 0 1 0 -15 0zM488.16 507.91 a7.5 7.5 0 1 0 15 0 a7.5 7.5 0 1 0 -15 0zM488.16 432.91 a7.5 7.5 0 1 0 15 0 a7.5 7.5 0 1 0 -15 0zM683.02 545.41 a7.5 7.5 0 1 0 15 0 a7.5 7.5 0 1 0 -15 0zM683.02 620.41 a7.5 7.5 0 1 0 15 0 a7.5 7.5 0 1 0 -15 0zM618.06 657.91 a7.5 7.5 0 1 0 15 0 a7.5 7.5 0 1 0 -15 0zM553.11 620.41 a7.5 7.5 0 1 0 15 0 a7.5 7.5 0 1 0 -15 0zM683.02 -54.59 a7.5 7.5 0 1 0 15 0 a7.5 7.5 0 1 0 -15 0zM747.97 -17.09 a7.5 7.5 0 1 0 15 0 a7.5 7.5 0 1 0 -15 0zM747.97 57.91 a7.5 7.5 0 1 0 15 0 a7.5 7.5 0 1 0 -15 0zM618.06 -17.09 a7.5 7.5 0 1 0 15 0 a7.5 7.5 0 1 0 -15 0zM877.88 282.91 a7.5 7.5 0 1 0 15 0 a7.5 7.5 0 1 0 -15 0zM942.83 320.41 a7.5 7.5 0 1 0 15 0 a7.5 7.5 0 1 0 -15 0zM942.83 395.41 a7.5 7.5 0 1 0 15 0 a7.5 7.5 0 1 0 -15 0zM877.88 432.91 a7.5 7.5 0 1 0 15 0 a7.5 7.5 0 1 0 -15 0zM812.92 395.41 a7.5 7.5 0 1 0 15 0 a7.5 7.5 0 1 0 -15 0zM812.92 320.41 a7.5 7.5 0 1 0 15 0 a7.5 7.5 0 1 0 -15 0zM1267.6 507.91 a7.5 7.5 0 1 0 15 0 a7.5 7.5 0 1 0 -15 0zM1332.55 545.41 a7.5 7.5 0 1 0 15 0 a7.5 7.5 0 1 0 -15 0zM1332.55 620.41 a7.5 7.5 0 1 0 15 0 a7.5 7.5 0 1 0 -15 0zM1267.6 657.91 a7.5 7.5 0 1 0 15 0 a7.5 7.5 0 1 0 -15 0zM1202.65 620.41 a7.5 7.5 0 1 0 15 0 a7.5 7.5 0 1 0 -15 0zM1202.65 545.41 a7.5 7.5 0 1 0 15 0 a7.5 7.5 0 1 0 -15 0z" fill="rgba(0, 0, 0, 0.76)"></path><path d="M109.43 251.93L152.73 276.93L152.73 326.93L109.43 351.93L66.12 326.93L66.12 276.93zM282.63 101.93L325.94 126.93L325.94 176.93L282.63 201.93L239.33 176.93L239.33 126.93zM282.63 251.93L325.94 276.93L325.94 326.93L282.63 351.93L239.33 326.93L239.33 276.93zM325.94 476.93L369.24 501.93L369.24 551.93L325.94 576.93L282.63 551.93L282.63 501.93zM369.24 101.93L412.54 126.93L412.54 176.93L369.24 201.93L325.94 176.93L325.94 126.93zM412.54 476.93L455.85 501.93L455.85 551.93L412.54 576.93L369.24 551.93L369.24 501.93zM672.36 26.93L715.66 51.93L715.66 101.93L672.36 126.93L629.06 101.93L629.06 51.93zM672.36 476.93L715.66 501.93L715.66 551.93L672.36 576.93L629.06 551.93L629.06 501.93zM715.66 101.93L758.96 126.93L758.96 176.93L715.66 201.93L672.36 176.93L672.36 126.93zM802.27 401.93L845.57 426.93L845.57 476.93L802.27 501.93L758.96 476.93L758.96 426.93zM888.87 251.93L932.17 276.93L932.17 326.93L888.87 351.93L845.57 326.93L845.57 276.93zM975.48 251.93L1018.78 276.93L1018.78 326.93L975.48 351.93L932.17 326.93L932.17 276.93zM975.48 401.93L1018.78 426.93L1018.78 476.93L975.48 501.93L932.17 476.93L932.17 426.93zM1278.59 476.93L1321.89 501.93L1321.89 551.93L1278.59 576.93L1235.29 551.93L1235.29 501.93zM1321.89 101.93L1365.2 126.93L1365.2 176.93L1321.89 201.93L1278.59 176.93L1278.59 126.93zM1321.89 401.93L1365.2 426.93L1365.2 476.93L1321.89 501.93L1278.59 476.93L1278.59 426.93zM1451.8 176.93L1495.11 201.93L1495.11 251.93L1451.8 276.93L1408.5 251.93L1408.5 201.93zM1451.8 326.93L1495.11 351.93L1495.11 401.93L1451.8 426.93L1408.5 401.93L1408.5 351.93z" stroke="rgba(6, 80, 156, 0.93)" stroke-width="2"></path></g><defs><mask id="SvgjsMask1594"><rect width="1440" height="560" fill="#ffffff"></rect></mask></defs></svg>