<svg xmlns="http://www.w3.org/2000/svg" version="1.1" xmlns:xlink="http://www.w3.org/1999/xlink" xmlns:svgjs="http://svgjs.dev/svgjs" width="1440" height="560" preserveAspectRatio="none" viewBox="0 0 1440 560"><g mask="url(&quot;#SvgjsMask1056&quot;)" fill="none"><rect width="1440" height="560" x="0" y="0" fill="rgba(44, 146, 211, 1)"></rect><path d="M0,508.17C95.45,496.79,182.67,461.657,266.767,415.097C356.145,365.613,440.168,310.276,502.976,229.701C578.975,132.204,658.842,27.881,664.847,-95.591C671.311,-228.492,624.739,-365.285,536.768,-465.112C449.088,-564.608,318.392,-618.104,187.215,-637.594C65.748,-655.641,-50.897,-608.882,-167.284,-569.718C-279.268,-532.036,-404.113,-506.366,-477.637,-413.875C-550.266,-322.51,-545.722,-196.233,-556.56,-80.021C-566.882,30.659,-583.568,144.322,-539.2,246.244C-494.454,349.035,-411.88,435.002,-311.04,483.987C-215.566,530.365,-105.397,520.736,0,508.17" fill="#2883be"></path><path d="M1440 986.197C1519.096 975.357 1588.155 937.923 1657.834 898.956 1732.007 857.476 1822.95 828.302 1859.517 751.587 1896.18 674.67 1865.221 584.743 1847.316 501.437 1830.512 423.253 1799.891 352.325 1758.94 283.637 1710.092 201.70299999999997 1673.703 100.35899999999998 1585.93 63.007000000000005 1496.584 24.985000000000014 1394.723 61.153999999999996 1301.721 89.06400000000002 1209.184 116.834 1119.034 154.27100000000002 1051.5230000000001 223.38299999999998 981.498 295.068 914.988 384.36 915.374 484.57 915.75 582.322 1006.281 650.9159999999999 1053.498 736.509 1096.343 814.177 1105.5810000000001 916.299 1180.088 964.432 1254.625 1012.5840000000001 1352.084 998.246 1440 986.197" fill="#419dd7"></path></g><defs><mask id="SvgjsMask1056"><rect width="1440" height="560" fill="#ffffff"></rect></mask></defs></svg>